<?xml version="1.0" encoding="UTF-8" standalone="no"?>
<!DOCTYPE svg PUBLIC "-//W3C//DTD SVG 1.1//EN"
 "http://www.w3.org/Graphics/SVG/1.1/DTD/svg11.dtd">
<!-- Generated by graphviz version 5.0.1 (20220820.1526)
 -->
<!-- Title: unnamed Pages: 1 -->
<svg width="100%" height="100%" xmlns="http://www.w3.org/2000/svg" xmlns:xlink="http://www.w3.org/1999/xlink">
<script type="text/ecmascript"><![CDATA[
/**
 *  SVGPan library 1.2.2
 * ======================
 *
 * Given an unique existing element with id "viewport" (or when missing, the
 * first g-element), including the library into any SVG adds the following
 * capabilities:
 *
 *  - Mouse panning
 *  - Mouse zooming (using the wheel)
 *  - Object dragging
 *
 * You can configure the behaviour of the pan/zoom/drag with the variables
 * listed in the CONFIGURATION section of this file.
 *
 * Known issues:
 *
 *  - Zooming (while panning) on Safari has still some issues
 *
 * Releases:
 *
 * 1.2.2, Tue Aug 30 17:21:56 CEST 2011, Andrea Leofreddi
 *	- Fixed viewBox on root tag (#7)
 *	- Improved zoom speed (#2)
 *
 * 1.2.1, Mon Jul  4 00:33:18 CEST 2011, Andrea Leofreddi
 *	- Fixed a regression with mouse wheel (now working on Firefox 5)
 *	- Working with viewBox attribute (#4)
 *	- Added "use strict;" and fixed resulting warnings (#5)
 *	- Added configuration variables, dragging is disabled by default (#3)
 *
 * 1.2, Sat Mar 20 08:42:50 GMT 2010, Zeng Xiaohui
 *	Fixed a bug with browser mouse handler interaction
 *
 * 1.1, Wed Feb  3 17:39:33 GMT 2010, Zeng Xiaohui
 *	Updated the zoom code to support the mouse wheel on Safari/Chrome
 *
 * 1.0, Andrea Leofreddi
 *	First release
 *
 * This code is licensed under the following BSD license:
 *
 * Copyright 2009-2017 Andrea Leofreddi <a.leofreddi@vleo.net>. All rights reserved.
 *
 * Redistribution and use in source and binary forms, with or without modification, are
 * permitted provided that the following conditions are met:
 *
 *    1. Redistributions of source code must retain the above copyright
 *       notice, this list of conditions and the following disclaimer.
 *    2. Redistributions in binary form must reproduce the above copyright
 *       notice, this list of conditions and the following disclaimer in the
 *       documentation and/or other materials provided with the distribution.
 *    3. Neither the name of the copyright holder nor the names of its
 *       contributors may be used to endorse or promote products derived from
 *       this software without specific prior written permission.
 *
 * THIS SOFTWARE IS PROVIDED BY COPYRIGHT HOLDERS AND CONTRIBUTORS ''AS IS'' AND ANY EXPRESS
 * OR IMPLIED WARRANTIES, INCLUDING, BUT NOT LIMITED TO, THE IMPLIED WARRANTIES OF MERCHANTABILITY
 * AND FITNESS FOR A PARTICULAR PURPOSE ARE DISCLAIMED. IN NO EVENT SHALL COPYRIGHT HOLDERS OR
 * CONTRIBUTORS BE LIABLE FOR ANY DIRECT, INDIRECT, INCIDENTAL, SPECIAL, EXEMPLARY, OR
 * CONSEQUENTIAL DAMAGES (INCLUDING, BUT NOT LIMITED TO, PROCUREMENT OF SUBSTITUTE GOODS OR
 * SERVICES; LOSS OF USE, DATA, OR PROFITS; OR BUSINESS INTERRUPTION) HOWEVER CAUSED AND ON
 * ANY THEORY OF LIABILITY, WHETHER IN CONTRACT, STRICT LIABILITY, OR TORT (INCLUDING
 * NEGLIGENCE OR OTHERWISE) ARISING IN ANY WAY OUT OF THE USE OF THIS SOFTWARE, EVEN IF
 * ADVISED OF THE POSSIBILITY OF SUCH DAMAGE.
 *
 * The views and conclusions contained in the software and documentation are those of the
 * authors and should not be interpreted as representing official policies, either expressed
 * or implied, of Andrea Leofreddi.
 */

"use strict";

/// CONFIGURATION
/// ====>

var enablePan = 1; // 1 or 0: enable or disable panning (default enabled)
var enableZoom = 1; // 1 or 0: enable or disable zooming (default enabled)
var enableDrag = 0; // 1 or 0: enable or disable dragging (default disabled)
var zoomScale = 0.2; // Zoom sensitivity

/// <====
/// END OF CONFIGURATION

var root = document.documentElement;

var state = 'none', svgRoot = null, stateTarget, stateOrigin, stateTf;

setupHandlers(root);

/**
 * Register handlers
 */
function setupHandlers(root){
	setAttributes(root, {
		"onmouseup" : "handleMouseUp(evt)",
		"onmousedown" : "handleMouseDown(evt)",
		"onmousemove" : "handleMouseMove(evt)",
		//"onmouseout" : "handleMouseUp(evt)", // Decomment this to stop the pan functionality when dragging out of the SVG element
	});

	if(navigator.userAgent.toLowerCase().indexOf('webkit') >= 0)
		window.addEventListener('mousewheel', handleMouseWheel, false); // Chrome/Safari
	else
		window.addEventListener('DOMMouseScroll', handleMouseWheel, false); // Others
}

/**
 * Retrieves the root element for SVG manipulation. The element is then cached into the svgRoot global variable.
 */
function getRoot(root) {
	if(svgRoot == null) {
		var r = root.getElementById("viewport") ? root.getElementById("viewport") : root.documentElement, t = r;

		while(t != root) {
			if(t.getAttribute("viewBox")) {
				setCTM(r, t.getCTM());

				t.removeAttribute("viewBox");
			}

			t = t.parentNode;
		}

		svgRoot = r;
	}

	return svgRoot;
}

/**
 * Instance an SVGPoint object with given event coordinates.
 */
function getEventPoint(evt) {
	var p = root.createSVGPoint();

	p.x = evt.clientX;
	p.y = evt.clientY;

	return p;
}

/**
 * Sets the current transform matrix of an element.
 */
function setCTM(element, matrix) {
	var s = "matrix(" + matrix.a + "," + matrix.b + "," + matrix.c + "," + matrix.d + "," + matrix.e + "," + matrix.f + ")";

	element.setAttribute("transform", s);
}

/**
 * Dumps a matrix to a string (useful for debug).
 */
function dumpMatrix(matrix) {
	var s = "[ " + matrix.a + ", " + matrix.c + ", " + matrix.e + "\n  " + matrix.b + ", " + matrix.d + ", " + matrix.f + "\n  0, 0, 1 ]";

	return s;
}

/**
 * Sets attributes of an element.
 */
function setAttributes(element, attributes){
	for (var i in attributes)
		element.setAttributeNS(null, i, attributes[i]);
}

/**
 * Handle mouse wheel event.
 */
function handleMouseWheel(evt) {
	if(!enableZoom)
		return;

	if(evt.preventDefault)
		evt.preventDefault();

	evt.returnValue = false;

	var svgDoc = evt.target.ownerDocument;

	var delta;

	if(evt.wheelDelta)
		delta = evt.wheelDelta / 360; // Chrome/Safari
	else
		delta = evt.detail / -9; // Mozilla

	var z = Math.pow(1 + zoomScale, delta);

	var g = getRoot(svgDoc);
	
	var p = getEventPoint(evt);

	p = p.matrixTransform(g.getCTM().inverse());

	// Compute new scale matrix in current mouse position
	var k = root.createSVGMatrix().translate(p.x, p.y).scale(z).translate(-p.x, -p.y);

        setCTM(g, g.getCTM().multiply(k));

	if(typeof(stateTf) == "undefined")
		stateTf = g.getCTM().inverse();

	stateTf = stateTf.multiply(k.inverse());
}

/**
 * Handle mouse move event.
 */
function handleMouseMove(evt) {
	if(evt.preventDefault)
		evt.preventDefault();

	evt.returnValue = false;

	var svgDoc = evt.target.ownerDocument;

	var g = getRoot(svgDoc);

	if(state == 'pan' && enablePan) {
		// Pan mode
		var p = getEventPoint(evt).matrixTransform(stateTf);

		setCTM(g, stateTf.inverse().translate(p.x - stateOrigin.x, p.y - stateOrigin.y));
	} else if(state == 'drag' && enableDrag) {
		// Drag mode
		var p = getEventPoint(evt).matrixTransform(g.getCTM().inverse());

		setCTM(stateTarget, root.createSVGMatrix().translate(p.x - stateOrigin.x, p.y - stateOrigin.y).multiply(g.getCTM().inverse()).multiply(stateTarget.getCTM()));

		stateOrigin = p;
	}
}

/**
 * Handle click event.
 */
function handleMouseDown(evt) {
	if(evt.preventDefault)
		evt.preventDefault();

	evt.returnValue = false;

	var svgDoc = evt.target.ownerDocument;

	var g = getRoot(svgDoc);

	if(
		evt.target.tagName == "svg"
		|| !enableDrag // Pan anyway when drag is disabled and the user clicked on an element
	) {
		// Pan mode
		state = 'pan';

		stateTf = g.getCTM().inverse();

		stateOrigin = getEventPoint(evt).matrixTransform(stateTf);
	} else {
		// Drag mode
		state = 'drag';

		stateTarget = evt.target;

		stateTf = g.getCTM().inverse();

		stateOrigin = getEventPoint(evt).matrixTransform(stateTf);
	}
}

/**
 * Handle mouse button release event.
 */
function handleMouseUp(evt) {
	if(evt.preventDefault)
		evt.preventDefault();

	evt.returnValue = false;

	var svgDoc = evt.target.ownerDocument;

	if(state == 'pan' || state == 'drag') {
		// Quit pan mode
		state = '';
	}
}
]]></script><g id="viewport" transform="scale(0.5,0.5) translate(0,0)"><g id="graph0" class="graph" transform="scale(1 1) rotate(0) translate(4 1125)">
<title>unnamed</title>
<polygon fill="white" stroke="none" points="-4,4 -4,-1125 1246.5,-1125 1246.5,4 -4,4"/>
<g id="clust1" class="cluster">
<title>cluster_L</title>
<polygon fill="none" stroke="black" points="8,-998 8,-1113 480,-1113 480,-998 8,-998"/>
</g>
<!-- Type: alloc_space -->
<g id="node1" class="node">
<title>Type: alloc_space</title>
<polygon fill="#f8f8f8" stroke="black" points="472,-1105 16,-1105 16,-1006 472,-1006 472,-1105"/>
<text text-anchor="start" x="24" y="-1088.2" font-family="Times,serif" font-size="16.00">Type: alloc_space</text>
<text text-anchor="start" x="24" y="-1070.2" font-family="Times,serif" font-size="16.00">Time: Aug 25, 2022 at 3:43pm (+07)</text>
<text text-anchor="start" x="24" y="-1052.2" font-family="Times,serif" font-size="16.00">Showing nodes accounting for 5811.98kB, 100% of 5811.98kB total</text>
<text text-anchor="start" x="24" y="-1015.2" font-family="Times,serif" font-size="16.00">See https://git.io/JfYMW for how to read the graph</text>
</g>
<!-- N1 -->
<g id="node1" class="node">
<title>N1</title>
<g id="a_node1"><a xlink:title="runtime.allocm (2050.25kB)">
<polygon fill="#eddbd5" stroke="#b22f00" points="720.5,-173 501.5,-173 501.5,-87 720.5,-87 720.5,-173"/>
<text text-anchor="middle" x="611" y="-149.8" font-family="Times,serif" font-size="24.00">runtime</text>
<text text-anchor="middle" x="611" y="-123.8" font-family="Times,serif" font-size="24.00">allocm</text>
<text text-anchor="middle" x="611" y="-97.8" font-family="Times,serif" font-size="24.00">2050.25kB (35.28%)</text>
</a>
</g>
</g>
<!-- NN1_0 -->
<g id="NN1_0" class="node">
<title>NN1_0</title>
<g id="a_NN1_0"><a xlink:title="2050.25kB">
<polygon fill="#f8f8f8" stroke="black" points="638,-36 588,-36 584,-32 584,0 634,0 638,-4 638,-36"/>
<polyline fill="none" stroke="black" points="634,-32 584,-32"/>
<polyline fill="none" stroke="black" points="634,-32 634,0"/>
<polyline fill="none" stroke="black" points="634,-32 638,-36"/>
<text text-anchor="middle" x="611" y="-16.1" font-family="Times,serif" font-size="8.00">1.12kB</text>
</a>
</g>
</g>
<!-- N1&#45;&gt;NN1_0 -->
<g id="edge1" class="edge">
<title>N1&#45;&gt;NN1_0</title>
<g id="a_edge1"><a xlink:title="2050.25kB">
<path fill="none" stroke="black" d="M611,-86.79C611,-73.2 611,-58.5 611,-46.28"/>
<polygon fill="black" stroke="black" points="614.5,-46.27 611,-36.27 607.5,-46.27 614.5,-46.27"/>
</a>
</g>
<g id="a_edge1&#45;label"><a xlink:title="2050.25kB">
<text text-anchor="middle" x="643" y="-57.8" font-family="Times,serif" font-size="14.00"> 2050.25kB</text>
</a>
</g>
</g>
<!-- N2 -->
<g id="node2" class="node">
<title>N2</title>
<g id="a_node2"><a xlink:title="runtime.main (1696.32kB)">
<polygon fill="#eddcd5" stroke="#b23700" points="834,-1095.5 664,-1095.5 664,-1015.5 834,-1015.5 834,-1095.5"/>
<text text-anchor="middle" x="749" y="-1078.7" font-family="Times,serif" font-size="16.00">runtime</text>
<text text-anchor="middle" x="749" y="-1060.7" font-family="Times,serif" font-size="16.00">main</text>
<text text-anchor="middle" x="749" y="-1042.7" font-family="Times,serif" font-size="16.00">512.05kB (8.81%)</text>
<text text-anchor="middle" x="749" y="-1024.7" font-family="Times,serif" font-size="16.00">of 1696.32kB (29.19%)</text>
</a>
</g>
</g>
<!-- NN2_0 -->
<g id="NN2_0" class="node">
<title>NN2_0</title>
<g id="a_NN2_0"><a xlink:title="512.05kB">
<polygon fill="#f8f8f8" stroke="black" points="776,-951 726,-951 722,-947 722,-915 772,-915 776,-919 776,-951"/>
<polyline fill="none" stroke="black" points="772,-947 722,-947"/>
<polyline fill="none" stroke="black" points="772,-947 772,-915"/>
<polyline fill="none" stroke="black" points="772,-947 776,-951"/>
<text text-anchor="middle" x="749" y="-931.1" font-family="Times,serif" font-size="8.00">96B</text>
</a>
</g>
</g>
<!-- N2&#45;&gt;NN2_0 -->
<g id="edge2" class="edge">
<title>N2&#45;&gt;NN2_0</title>
<g id="a_edge2"><a xlink:title="512.05kB">
<path fill="none" stroke="black" d="M749,-1015.38C749,-997.73 749,-977.32 749,-961.35"/>
<polygon fill="black" stroke="black" points="752.5,-961.1 749,-951.1 745.5,-961.1 752.5,-961.1"/>
</a>
</g>
<g id="a_edge2&#45;label"><a xlink:title="512.05kB">
<text text-anchor="middle" x="778" y="-976.8" font-family="Times,serif" font-size="14.00"> 512.05kB</text>
</a>
</g>
</g>
<!-- N13 -->
<g id="node13" class="node">
<title>N13</title>
<g id="a_node13"><a xlink:title="main.main (1184.27kB)">
<polygon fill="#edded5" stroke="#b24300" points="871,-856 773,-856 773,-820 871,-820 871,-856"/>
<text text-anchor="middle" x="822" y="-845.1" font-family="Times,serif" font-size="8.00">main</text>
<text text-anchor="middle" x="822" y="-836.1" font-family="Times,serif" font-size="8.00">main</text>
<text text-anchor="middle" x="822" y="-827.1" font-family="Times,serif" font-size="8.00">0 of 1184.27kB (20.38%)</text>
</a>
</g>
</g>
<!-- N2&#45;&gt;N13 -->
<g id="edge16" class="edge">
<title>N2&#45;&gt;N13</title>
<g id="a_edge16"><a xlink:title="runtime.main &#45;&gt; main.main (1184.27kB)">
<path fill="none" stroke="#b24300" stroke-width="2" d="M790.96,-1015.16C797.7,-1006.83 803.82,-997.63 808,-988 825.22,-948.35 825.97,-897.3 824.38,-866.42"/>
<polygon fill="#b24300" stroke="#b24300" stroke-width="2" points="827.87,-866.15 823.75,-856.39 820.89,-866.59 827.87,-866.15"/>
</a>
</g>
<g id="a_edge16&#45;label"><a xlink:title="runtime.main &#45;&gt; main.main (1184.27kB)">
<text text-anchor="middle" x="856" y="-929.3" font-family="Times,serif" font-size="14.00"> 1184.27kB</text>
</a>
</g>
</g>
<!-- N3 -->
<g id="node3" class="node">
<title>N3</title>
<g id="a_node3"><a xlink:title="compress/flate.NewWriter (1553.21kB)">
<polygon fill="#edddd5" stroke="#b23a00" points="1087,-765 889,-765 889,-673 1087,-673 1087,-765"/>
<text text-anchor="middle" x="988" y="-745.8" font-family="Times,serif" font-size="19.00">flate</text>
<text text-anchor="middle" x="988" y="-724.8" font-family="Times,serif" font-size="19.00">NewWriter</text>
<text text-anchor="middle" x="988" y="-703.8" font-family="Times,serif" font-size="19.00">902.59kB (15.53%)</text>
<text text-anchor="middle" x="988" y="-682.8" font-family="Times,serif" font-size="19.00">of 1553.21kB (26.72%)</text>
</a>
</g>
</g>
<!-- NN3_0 -->
<g id="NN3_0" class="node">
<title>NN3_0</title>
<g id="a_NN3_0"><a xlink:title="902.59kB">
<polygon fill="#f8f8f8" stroke="black" points="1015,-618 965,-618 961,-614 961,-582 1011,-582 1015,-586 1015,-618"/>
<polyline fill="none" stroke="black" points="1011,-614 961,-614"/>
<polyline fill="none" stroke="black" points="1011,-614 1011,-582"/>
<polyline fill="none" stroke="black" points="1011,-614 1015,-618"/>
<text text-anchor="middle" x="988" y="-598.1" font-family="Times,serif" font-size="8.00">648kB</text>
</a>
</g>
</g>
<!-- N3&#45;&gt;NN3_0 -->
<g id="edge3" class="edge">
<title>N3&#45;&gt;NN3_0</title>
<g id="a_edge3"><a xlink:title="902.59kB">
<path fill="none" stroke="black" d="M988,-672.76C988,-657.79 988,-641.6 988,-628.39"/>
<polygon fill="black" stroke="black" points="991.5,-628.09 988,-618.09 984.5,-628.09 991.5,-628.09"/>
</a>
</g>
<g id="a_edge3&#45;label"><a xlink:title="902.59kB">
<text text-anchor="middle" x="1017" y="-643.8" font-family="Times,serif" font-size="14.00"> 902.59kB</text>
</a>
</g>
</g>
<!-- N7 -->
<g id="node7" class="node">
<title>N7</title>
<g id="a_node7"><a xlink:title="compress/flate.(*compressor).init (650.62kB)">
<polygon fill="#ede6df" stroke="#b27e4e" points="1140.5,-527 981.5,-527 981.5,-439 1140.5,-439 1140.5,-527"/>
<text text-anchor="middle" x="1061" y="-508.6" font-family="Times,serif" font-size="18.00">flate</text>
<text text-anchor="middle" x="1061" y="-488.6" font-family="Times,serif" font-size="18.00">(*compressor)</text>
<text text-anchor="middle" x="1061" y="-468.6" font-family="Times,serif" font-size="18.00">init</text>
<text text-anchor="middle" x="1061" y="-448.6" font-family="Times,serif" font-size="18.00">650.62kB (11.19%)</text>
</a>
</g>
</g>
<!-- N3&#45;&gt;N7 -->
<g id="edge25" class="edge">
<title>N3&#45;&gt;N7</title>
<g id="a_edge25"><a xlink:title="compress/flate.NewWriter &#45;&gt; compress/flate.(*compressor).init (650.62kB)">
<path fill="none" stroke="#b27e4e" d="M1036.6,-672.72C1040.67,-667.11 1044.27,-661.16 1047,-655 1063.42,-617.95 1066.34,-571.97 1065.47,-537.03"/>
<polygon fill="#b27e4e" stroke="#b27e4e" points="1068.97,-536.89 1065.11,-527.02 1061.98,-537.14 1068.97,-536.89"/>
</a>
</g>
<g id="a_edge25&#45;label"><a xlink:title="compress/flate.NewWriter &#45;&gt; compress/flate.(*compressor).init (650.62kB)">
<text text-anchor="middle" x="1093" y="-596.3" font-family="Times,serif" font-size="14.00"> 650.62kB</text>
</a>
</g>
</g>
<!-- N4 -->
<g id="node4" class="node">
<title>N4</title>
<g id="a_node4"><a xlink:title="runtime/pprof.StartCPUProfile (1184.27kB)">
<polygon fill="#edded5" stroke="#b24300" points="917.5,-388 726.5,-388 726.5,-311 917.5,-311 917.5,-388"/>
<text text-anchor="middle" x="822" y="-367.2" font-family="Times,serif" font-size="21.00">pprof</text>
<text text-anchor="middle" x="822" y="-344.2" font-family="Times,serif" font-size="21.00">StartCPUProfile</text>
<text text-anchor="middle" x="822" y="-321.2" font-family="Times,serif" font-size="21.00">1184.27kB (20.38%)</text>
</a>
</g>
</g>
<!-- NN4_0 -->
<g id="NN4_0" class="node">
<title>NN4_0</title>
<g id="a_NN4_0"><a xlink:title="1184.27kB">
<polygon fill="#f8f8f8" stroke="black" points="849,-260 799,-260 795,-256 795,-224 845,-224 849,-228 849,-260"/>
<polyline fill="none" stroke="black" points="845,-256 795,-256"/>
<polyline fill="none" stroke="black" points="845,-256 845,-224"/>
<polyline fill="none" stroke="black" points="845,-256 849,-260"/>
<text text-anchor="middle" x="822" y="-240.1" font-family="Times,serif" font-size="8.00">1MB</text>
</a>
</g>
</g>
<!-- N4&#45;&gt;NN4_0 -->
<g id="edge4" class="edge">
<title>N4&#45;&gt;NN4_0</title>
<g id="a_edge4"><a xlink:title="1184.27kB">
<path fill="none" stroke="black" d="M822,-310.71C822,-297.36 822,-282.61 822,-270.3"/>
<polygon fill="black" stroke="black" points="825.5,-270.2 822,-260.2 818.5,-270.2 825.5,-270.2"/>
</a>
</g>
<g id="a_edge4&#45;label"><a xlink:title="1184.27kB">
<text text-anchor="middle" x="854" y="-281.8" font-family="Times,serif" font-size="14.00"> 1184.27kB</text>
</a>
</g>
</g>
<!-- N5 -->
<g id="node5" class="node">
<title>N5</title>
<g id="a_node5"><a xlink:title="runtime.schedule (2050.25kB)">
<polygon fill="#eddbd5" stroke="#b22f00" points="660,-737 562,-737 562,-701 660,-701 660,-737"/>
<text text-anchor="middle" x="611" y="-726.1" font-family="Times,serif" font-size="8.00">runtime</text>
<text text-anchor="middle" x="611" y="-717.1" font-family="Times,serif" font-size="8.00">schedule</text>
<text text-anchor="middle" x="611" y="-708.1" font-family="Times,serif" font-size="8.00">0 of 2050.25kB (35.28%)</text>
</a>
</g>
</g>
<!-- N20 -->
<g id="node20" class="node">
<title>N20</title>
<g id="a_node20"><a xlink:title="runtime.resetspinning (2050.25kB)">
<polygon fill="#eddbd5" stroke="#b22f00" points="660,-618 562,-618 562,-582 660,-582 660,-618"/>
<text text-anchor="middle" x="611" y="-607.1" font-family="Times,serif" font-size="8.00">runtime</text>
<text text-anchor="middle" x="611" y="-598.1" font-family="Times,serif" font-size="8.00">resetspinning</text>
<text text-anchor="middle" x="611" y="-589.1" font-family="Times,serif" font-size="8.00">0 of 2050.25kB (35.28%)</text>
</a>
</g>
</g>
<!-- N5&#45;&gt;N20 -->
<g id="edge9" class="edge">
<title>N5&#45;&gt;N20</title>
<g id="a_edge9"><a xlink:title="runtime.schedule &#45;&gt; runtime.resetspinning (2050.25kB)">
<path fill="none" stroke="#b22f00" stroke-width="2" d="M611,-700.99C611,-681.92 611,-650.75 611,-628.28"/>
<polygon fill="#b22f00" stroke="#b22f00" stroke-width="2" points="614.5,-628.03 611,-618.03 607.5,-628.03 614.5,-628.03"/>
</a>
</g>
<g id="a_edge9&#45;label"><a xlink:title="runtime.schedule &#45;&gt; runtime.resetspinning (2050.25kB)">
<text text-anchor="middle" x="643" y="-643.8" font-family="Times,serif" font-size="14.00"> 2050.25kB</text>
</a>
</g>
</g>
<!-- N6 -->
<g id="node6" class="node">
<title>N6</title>
<g id="a_node6"><a xlink:title="runtime/pprof.profileWriter (1553.21kB)">
<polygon fill="#edddd5" stroke="#b23a00" points="1037,-1073.5 939,-1073.5 939,-1037.5 1037,-1037.5 1037,-1073.5"/>
<text text-anchor="middle" x="988" y="-1062.6" font-family="Times,serif" font-size="8.00">pprof</text>
<text text-anchor="middle" x="988" y="-1053.6" font-family="Times,serif" font-size="8.00">profileWriter</text>
<text text-anchor="middle" x="988" y="-1044.6" font-family="Times,serif" font-size="8.00">0 of 1553.21kB (26.72%)</text>
</a>
</g>
</g>
<!-- N23 -->
<g id="node23" class="node">
<title>N23</title>
<g id="a_node23"><a xlink:title="runtime/pprof.(*profileBuilder).build (1553.21kB)">
<polygon fill="#edddd5" stroke="#b23a00" points="1037,-955 939,-955 939,-911 1037,-911 1037,-955"/>
<text text-anchor="middle" x="988" y="-944.6" font-family="Times,serif" font-size="8.00">pprof</text>
<text text-anchor="middle" x="988" y="-935.6" font-family="Times,serif" font-size="8.00">(*profileBuilder)</text>
<text text-anchor="middle" x="988" y="-926.6" font-family="Times,serif" font-size="8.00">build</text>
<text text-anchor="middle" x="988" y="-917.6" font-family="Times,serif" font-size="8.00">0 of 1553.21kB (26.72%)</text>
</a>
</g>
</g>
<!-- N6&#45;&gt;N23 -->
<g id="edge14" class="edge">
<title>N6&#45;&gt;N23</title>
<g id="a_edge14"><a xlink:title="runtime/pprof.profileWriter &#45;&gt; runtime/pprof.(*profileBuilder).build (1553.21kB)">
<path fill="none" stroke="#b23a00" stroke-width="2" d="M988,-1037.49C988,-1018.9 988,-988.69 988,-965.7"/>
<polygon fill="#b23a00" stroke="#b23a00" stroke-width="2" points="991.5,-965.39 988,-955.39 984.5,-965.39 991.5,-965.39"/>
</a>
</g>
<g id="a_edge14&#45;label"><a xlink:title="runtime/pprof.profileWriter &#45;&gt; runtime/pprof.(*profileBuilder).build (1553.21kB)">
<text text-anchor="middle" x="1020" y="-976.8" font-family="Times,serif" font-size="14.00"> 1553.21kB</text>
</a>
</g>
</g>
<!-- NN7_0 -->
<g id="NN7_0" class="node">
<title>NN7_0</title>
<g id="a_NN7_0"><a xlink:title="650.62kB">
<polygon fill="#f8f8f8" stroke="black" points="1088,-367.5 1038,-367.5 1034,-363.5 1034,-331.5 1084,-331.5 1088,-335.5 1088,-367.5"/>
<polyline fill="none" stroke="black" points="1084,-363.5 1034,-363.5"/>
<polyline fill="none" stroke="black" points="1084,-363.5 1084,-331.5"/>
<polyline fill="none" stroke="black" points="1084,-363.5 1088,-367.5"/>
<text text-anchor="middle" x="1061" y="-347.6" font-family="Times,serif" font-size="8.00">256kB</text>
</a>
</g>
</g>
<!-- N7&#45;&gt;NN7_0 -->
<g id="edge5" class="edge">
<title>N7&#45;&gt;NN7_0</title>
<g id="a_edge5"><a xlink:title="650.62kB">
<path fill="none" stroke="black" d="M1061,-438.94C1061,-418.84 1061,-395.52 1061,-377.87"/>
<polygon fill="black" stroke="black" points="1064.5,-377.7 1061,-367.7 1057.5,-377.7 1064.5,-377.7"/>
</a>
</g>
<g id="a_edge5&#45;label"><a xlink:title="650.62kB">
<text text-anchor="middle" x="1090" y="-409.8" font-family="Times,serif" font-size="14.00"> 650.62kB</text>
</a>
</g>
</g>
<!-- N8 -->
<g id="node8" class="node">
<title>N8</title>
<g id="a_node8"><a xlink:title="runtime.mcall (1025.12kB)">
<polygon fill="#ede0d8" stroke="#b25415" points="704,-951 606,-951 606,-915 704,-915 704,-951"/>
<text text-anchor="middle" x="655" y="-940.1" font-family="Times,serif" font-size="8.00">runtime</text>
<text text-anchor="middle" x="655" y="-931.1" font-family="Times,serif" font-size="8.00">mcall</text>
<text text-anchor="middle" x="655" y="-922.1" font-family="Times,serif" font-size="8.00">0 of 1025.12kB (17.64%)</text>
</a>
</g>
</g>
<!-- N19 -->
<g id="node19" class="node">
<title>N19</title>
<g id="a_node19"><a xlink:title="runtime.park_m (1025.12kB)">
<polygon fill="#ede0d8" stroke="#b25415" points="704,-856 606,-856 606,-820 704,-820 704,-856"/>
<text text-anchor="middle" x="655" y="-845.1" font-family="Times,serif" font-size="8.00">runtime</text>
<text text-anchor="middle" x="655" y="-836.1" font-family="Times,serif" font-size="8.00">park_m</text>
<text text-anchor="middle" x="655" y="-827.1" font-family="Times,serif" font-size="8.00">0 of 1025.12kB (17.64%)</text>
</a>
</g>
</g>
<!-- N8&#45;&gt;N19 -->
<g id="edge20" class="edge">
<title>N8&#45;&gt;N19</title>
<g id="a_edge20"><a xlink:title="runtime.mcall &#45;&gt; runtime.park_m (1025.12kB)">
<path fill="none" stroke="#b25415" d="M655,-914.94C655,-901.39 655,-882.18 655,-866.47"/>
<polygon fill="#b25415" stroke="#b25415" points="658.5,-866.26 655,-856.26 651.5,-866.26 658.5,-866.26"/>
</a>
</g>
<g id="a_edge20&#45;label"><a xlink:title="runtime.mcall &#45;&gt; runtime.park_m (1025.12kB)">
<text text-anchor="middle" x="687" y="-881.8" font-family="Times,serif" font-size="14.00"> 1025.12kB</text>
</a>
</g>
</g>
<!-- N9 -->
<g id="node9" class="node">
<title>N9</title>
<g id="a_node9"><a xlink:title="runtime.mstart (1025.12kB)">
<polygon fill="#ede0d8" stroke="#b25415" points="588,-1073.5 490,-1073.5 490,-1037.5 588,-1037.5 588,-1073.5"/>
<text text-anchor="middle" x="539" y="-1062.6" font-family="Times,serif" font-size="8.00">runtime</text>
<text text-anchor="middle" x="539" y="-1053.6" font-family="Times,serif" font-size="8.00">mstart</text>
<text text-anchor="middle" x="539" y="-1044.6" font-family="Times,serif" font-size="8.00">0 of 1025.12kB (17.64%)</text>
</a>
</g>
</g>
<!-- N14 -->
<g id="node14" class="node">
<title>N14</title>
<g id="a_node14"><a xlink:title="runtime.mstart0 (1025.12kB)">
<polygon fill="#ede0d8" stroke="#b25415" points="588,-951 490,-951 490,-915 588,-915 588,-951"/>
<text text-anchor="middle" x="539" y="-940.1" font-family="Times,serif" font-size="8.00">runtime</text>
<text text-anchor="middle" x="539" y="-931.1" font-family="Times,serif" font-size="8.00">mstart0</text>
<text text-anchor="middle" x="539" y="-922.1" font-family="Times,serif" font-size="8.00">0 of 1025.12kB (17.64%)</text>
</a>
</g>
</g>
<!-- N9&#45;&gt;N14 -->
<g id="edge21" class="edge">
<title>N9&#45;&gt;N14</title>
<g id="a_edge21"><a xlink:title="runtime.mstart &#45;&gt; runtime.mstart0 (1025.12kB)">
<path fill="none" stroke="#b25415" d="M539,-1037.49C539,-1017.78 539,-985.01 539,-961.63"/>
<polygon fill="#b25415" stroke="#b25415" points="542.5,-961.31 539,-951.31 535.5,-961.31 542.5,-961.31"/>
</a>
</g>
<g id="a_edge21&#45;label"><a xlink:title="runtime.mstart &#45;&gt; runtime.mstart0 (1025.12kB)">
<text text-anchor="middle" x="571" y="-976.8" font-family="Times,serif" font-size="14.00"> 1025.12kB</text>
</a>
</g>
</g>
<!-- N10 -->
<g id="node10" class="node">
<title>N10</title>
<g id="a_node10"><a xlink:title="runtime.malg (512.20kB)">
<polygon fill="#ede8e2" stroke="#b28c63" points="1242.5,-750 1105.5,-750 1105.5,-688 1242.5,-688 1242.5,-750"/>
<text text-anchor="middle" x="1174" y="-733.2" font-family="Times,serif" font-size="16.00">runtime</text>
<text text-anchor="middle" x="1174" y="-715.2" font-family="Times,serif" font-size="16.00">malg</text>
<text text-anchor="middle" x="1174" y="-697.2" font-family="Times,serif" font-size="16.00">512.20kB (8.81%)</text>
</a>
</g>
</g>
<!-- NN10_0 -->
<g id="NN10_0" class="node">
<title>NN10_0</title>
<g id="a_NN10_0"><a xlink:title="512.20kB">
<polygon fill="#f8f8f8" stroke="black" points="1201,-618 1151,-618 1147,-614 1147,-582 1197,-582 1201,-586 1201,-618"/>
<polyline fill="none" stroke="black" points="1197,-614 1147,-614"/>
<polyline fill="none" stroke="black" points="1197,-614 1197,-582"/>
<polyline fill="none" stroke="black" points="1197,-614 1201,-618"/>
<text text-anchor="middle" x="1174" y="-598.1" font-family="Times,serif" font-size="8.00">416B</text>
</a>
</g>
</g>
<!-- N10&#45;&gt;NN10_0 -->
<g id="edge6" class="edge">
<title>N10&#45;&gt;NN10_0</title>
<g id="a_edge6"><a xlink:title="512.20kB">
<path fill="none" stroke="black" d="M1174,-687.87C1174,-669.5 1174,-646.22 1174,-628.38"/>
<polygon fill="black" stroke="black" points="1177.5,-628.32 1174,-618.32 1170.5,-628.32 1177.5,-628.32"/>
</a>
</g>
<g id="a_edge6&#45;label"><a xlink:title="512.20kB">
<text text-anchor="middle" x="1203" y="-643.8" font-family="Times,serif" font-size="14.00"> 512.20kB</text>
</a>
</g>
</g>
<!-- N11 -->
<g id="node11" class="node">
<title>N11</title>
<g id="a_node11"><a xlink:title="runtime.systemstack (512.20kB)">
<polygon fill="#ede8e2" stroke="#b28c63" points="1219,-1073.5 1129,-1073.5 1129,-1037.5 1219,-1037.5 1219,-1073.5"/>
<text text-anchor="middle" x="1174" y="-1062.6" font-family="Times,serif" font-size="8.00">runtime</text>
<text text-anchor="middle" x="1174" y="-1053.6" font-family="Times,serif" font-size="8.00">systemstack</text>
<text text-anchor="middle" x="1174" y="-1044.6" font-family="Times,serif" font-size="8.00">0 of 512.20kB (8.81%)</text>
</a>
</g>
</g>
<!-- N17 -->
<g id="node17" class="node">
<title>N17</title>
<g id="a_node17"><a xlink:title="runtime.newproc.func1 (512.20kB)">
<polygon fill="#ede8e2" stroke="#b28c63" points="1219,-955 1129,-955 1129,-911 1219,-911 1219,-955"/>
<text text-anchor="middle" x="1174" y="-944.6" font-family="Times,serif" font-size="8.00">runtime</text>
<text text-anchor="middle" x="1174" y="-935.6" font-family="Times,serif" font-size="8.00">newproc</text>
<text text-anchor="middle" x="1174" y="-926.6" font-family="Times,serif" font-size="8.00">func1</text>
<text text-anchor="middle" x="1174" y="-917.6" font-family="Times,serif" font-size="8.00">0 of 512.20kB (8.81%)</text>
</a>
</g>
</g>
<!-- N11&#45;&gt;N17 -->
<g id="edge28" class="edge">
<title>N11&#45;&gt;N17</title>
<g id="a_edge28"><a xlink:title="runtime.systemstack &#45;&gt; runtime.newproc.func1 (512.20kB)">
<path fill="none" stroke="#b28c63" d="M1174,-1037.49C1174,-1018.9 1174,-988.69 1174,-965.7"/>
<polygon fill="#b28c63" stroke="#b28c63" points="1177.5,-965.39 1174,-955.39 1170.5,-965.39 1177.5,-965.39"/>
</a>
</g>
<g id="a_edge28&#45;label"><a xlink:title="runtime.systemstack &#45;&gt; runtime.newproc.func1 (512.20kB)">
<text text-anchor="middle" x="1203" y="-976.8" font-family="Times,serif" font-size="14.00"> 512.20kB</text>
</a>
</g>
</g>
<!-- N12 -->
<g id="node12" class="node">
<title>N12</title>
<g id="a_node12"><a xlink:title="compress/gzip.(*Writer).Write (1553.21kB)">
<polygon fill="#edddd5" stroke="#b23a00" points="1037,-860 939,-860 939,-816 1037,-816 1037,-860"/>
<text text-anchor="middle" x="988" y="-849.6" font-family="Times,serif" font-size="8.00">gzip</text>
<text text-anchor="middle" x="988" y="-840.6" font-family="Times,serif" font-size="8.00">(*Writer)</text>
<text text-anchor="middle" x="988" y="-831.6" font-family="Times,serif" font-size="8.00">Write</text>
<text text-anchor="middle" x="988" y="-822.6" font-family="Times,serif" font-size="8.00">0 of 1553.21kB (26.72%)</text>
</a>
</g>
</g>
<!-- N12&#45;&gt;N3 -->
<g id="edge12" class="edge">
<title>N12&#45;&gt;N3</title>
<g id="a_edge12"><a xlink:title="compress/gzip.(*Writer).Write &#45;&gt; compress/flate.NewWriter (1553.21kB)">
<path fill="none" stroke="#b23a00" stroke-width="2" d="M988,-815.81C988,-804.47 988,-789.92 988,-775.6"/>
<polygon fill="#b23a00" stroke="#b23a00" stroke-width="2" points="991.5,-775.27 988,-765.27 984.5,-775.27 991.5,-775.27"/>
</a>
</g>
<g id="a_edge12&#45;label"><a xlink:title="compress/gzip.(*Writer).Write &#45;&gt; compress/flate.NewWriter (1553.21kB)">
<text text-anchor="middle" x="1020" y="-786.8" font-family="Times,serif" font-size="14.00"> 1553.21kB</text>
</a>
</g>
</g>
<!-- N24 -->
<g id="node24" class="node">
<title>N24</title>
<g id="a_node24"><a xlink:title="testing.(*M).Run (1184.27kB)">
<polygon fill="#edded5" stroke="#b24300" points="871,-741 773,-741 773,-697 871,-697 871,-741"/>
<text text-anchor="middle" x="822" y="-730.6" font-family="Times,serif" font-size="8.00">testing</text>
<text text-anchor="middle" x="822" y="-721.6" font-family="Times,serif" font-size="8.00">(*M)</text>
<text text-anchor="middle" x="822" y="-712.6" font-family="Times,serif" font-size="8.00">Run</text>
<text text-anchor="middle" x="822" y="-703.6" font-family="Times,serif" font-size="8.00">0 of 1184.27kB (20.38%)</text>
</a>
</g>
</g>
<!-- N13&#45;&gt;N24 -->
<g id="edge15" class="edge">
<title>N13&#45;&gt;N24</title>
<g id="a_edge15"><a xlink:title="main.main &#45;&gt; testing.(*M).Run (1184.27kB)">
<path fill="none" stroke="#b24300" stroke-width="2" d="M822,-819.99C822,-802.12 822,-773.62 822,-751.61"/>
<polygon fill="#b24300" stroke="#b24300" stroke-width="2" points="825.5,-751.4 822,-741.4 818.5,-751.4 825.5,-751.4"/>
</a>
</g>
<g id="a_edge15&#45;label"><a xlink:title="main.main &#45;&gt; testing.(*M).Run (1184.27kB)">
<text text-anchor="middle" x="854" y="-786.8" font-family="Times,serif" font-size="14.00"> 1184.27kB</text>
</a>
</g>
</g>
<!-- N15 -->
<g id="node15" class="node">
<title>N15</title>
<g id="a_node15"><a xlink:title="runtime.mstart1 (1025.12kB)">
<polygon fill="#ede0d8" stroke="#b25415" points="588,-856 490,-856 490,-820 588,-820 588,-856"/>
<text text-anchor="middle" x="539" y="-845.1" font-family="Times,serif" font-size="8.00">runtime</text>
<text text-anchor="middle" x="539" y="-836.1" font-family="Times,serif" font-size="8.00">mstart1</text>
<text text-anchor="middle" x="539" y="-827.1" font-family="Times,serif" font-size="8.00">0 of 1025.12kB (17.64%)</text>
</a>
</g>
</g>
<!-- N14&#45;&gt;N15 -->
<g id="edge22" class="edge">
<title>N14&#45;&gt;N15</title>
<g id="a_edge22"><a xlink:title="runtime.mstart0 &#45;&gt; runtime.mstart1 (1025.12kB)">
<path fill="none" stroke="#b25415" d="M539,-914.94C539,-901.39 539,-882.18 539,-866.47"/>
<polygon fill="#b25415" stroke="#b25415" points="542.5,-866.26 539,-856.26 535.5,-866.26 542.5,-866.26"/>
</a>
</g>
<g id="a_edge22&#45;label"><a xlink:title="runtime.mstart0 &#45;&gt; runtime.mstart1 (1025.12kB)">
<text text-anchor="middle" x="571" y="-881.8" font-family="Times,serif" font-size="14.00"> 1025.12kB</text>
</a>
</g>
</g>
<!-- N15&#45;&gt;N5 -->
<g id="edge23" class="edge">
<title>N15&#45;&gt;N5</title>
<g id="a_edge23"><a xlink:title="runtime.mstart1 &#45;&gt; runtime.schedule (1025.12kB)">
<path fill="none" stroke="#b25415" d="M547.69,-819.72C553.23,-808.99 560.71,-795.01 568,-783 575.72,-770.28 584.95,-756.59 592.87,-745.23"/>
<polygon fill="#b25415" stroke="#b25415" points="595.74,-747.25 598.63,-737.06 590.01,-743.22 595.74,-747.25"/>
</a>
</g>
<g id="a_edge23&#45;label"><a xlink:title="runtime.mstart1 &#45;&gt; runtime.schedule (1025.12kB)">
<text text-anchor="middle" x="600" y="-786.8" font-family="Times,serif" font-size="14.00"> 1025.12kB</text>
</a>
</g>
</g>
<!-- N16 -->
<g id="node16" class="node">
<title>N16</title>
<g id="a_node16"><a xlink:title="runtime.newm (2050.25kB)">
<polygon fill="#eddbd5" stroke="#b22f00" points="660,-260 562,-260 562,-224 660,-224 660,-260"/>
<text text-anchor="middle" x="611" y="-249.1" font-family="Times,serif" font-size="8.00">runtime</text>
<text text-anchor="middle" x="611" y="-240.1" font-family="Times,serif" font-size="8.00">newm</text>
<text text-anchor="middle" x="611" y="-231.1" font-family="Times,serif" font-size="8.00">0 of 2050.25kB (35.28%)</text>
</a>
</g>
</g>
<!-- N16&#45;&gt;N1 -->
<g id="edge7" class="edge">
<title>N16&#45;&gt;N1</title>
<g id="a_edge7"><a xlink:title="runtime.newm &#45;&gt; runtime.allocm (2050.25kB)">
<path fill="none" stroke="#b22f00" stroke-width="2" d="M611,-223.81C611,-212.82 611,-197.91 611,-183.26"/>
<polygon fill="#b22f00" stroke="#b22f00" stroke-width="2" points="614.5,-183.21 611,-173.21 607.5,-183.21 614.5,-183.21"/>
</a>
</g>
<g id="a_edge7&#45;label"><a xlink:title="runtime.newm &#45;&gt; runtime.allocm (2050.25kB)">
<text text-anchor="middle" x="643" y="-194.8" font-family="Times,serif" font-size="14.00"> 2050.25kB</text>
</a>
</g>
</g>
<!-- N18 -->
<g id="node18" class="node">
<title>N18</title>
<g id="a_node18"><a xlink:title="runtime.newproc1 (512.20kB)">
<polygon fill="#ede8e2" stroke="#b28c63" points="1219,-856 1129,-856 1129,-820 1219,-820 1219,-856"/>
<text text-anchor="middle" x="1174" y="-845.1" font-family="Times,serif" font-size="8.00">runtime</text>
<text text-anchor="middle" x="1174" y="-836.1" font-family="Times,serif" font-size="8.00">newproc1</text>
<text text-anchor="middle" x="1174" y="-827.1" font-family="Times,serif" font-size="8.00">0 of 512.20kB (8.81%)</text>
</a>
</g>
</g>
<!-- N17&#45;&gt;N18 -->
<g id="edge26" class="edge">
<title>N17&#45;&gt;N18</title>
<g id="a_edge26"><a xlink:title="runtime.newproc.func1 &#45;&gt; runtime.newproc1 (512.20kB)">
<path fill="none" stroke="#b28c63" d="M1174,-910.9C1174,-897.74 1174,-880.68 1174,-866.48"/>
<polygon fill="#b28c63" stroke="#b28c63" points="1177.5,-866.28 1174,-856.28 1170.5,-866.28 1177.5,-866.28"/>
</a>
</g>
<g id="a_edge26&#45;label"><a xlink:title="runtime.newproc.func1 &#45;&gt; runtime.newproc1 (512.20kB)">
<text text-anchor="middle" x="1203" y="-881.8" font-family="Times,serif" font-size="14.00"> 512.20kB</text>
</a>
</g>
</g>
<!-- N18&#45;&gt;N10 -->
<g id="edge27" class="edge">
<title>N18&#45;&gt;N10</title>
<g id="a_edge27"><a xlink:title="runtime.newproc1 &#45;&gt; runtime.malg (512.20kB)">
<path fill="none" stroke="#b28c63" d="M1174,-819.99C1174,-804.37 1174,-780.63 1174,-760.2"/>
<polygon fill="#b28c63" stroke="#b28c63" points="1177.5,-760.19 1174,-750.19 1170.5,-760.19 1177.5,-760.19"/>
</a>
</g>
<g id="a_edge27&#45;label"><a xlink:title="runtime.newproc1 &#45;&gt; runtime.malg (512.20kB)">
<text text-anchor="middle" x="1203" y="-786.8" font-family="Times,serif" font-size="14.00"> 512.20kB</text>
</a>
</g>
</g>
<!-- N19&#45;&gt;N5 -->
<g id="edge24" class="edge">
<title>N19&#45;&gt;N5</title>
<g id="a_edge24"><a xlink:title="runtime.park_m &#45;&gt; runtime.schedule (1025.12kB)">
<path fill="none" stroke="#b25415" d="M648.6,-819.99C641.37,-800.75 629.5,-769.18 621.03,-746.67"/>
<polygon fill="#b25415" stroke="#b25415" points="624.2,-745.16 617.41,-737.03 617.65,-747.63 624.2,-745.16"/>
</a>
</g>
<g id="a_edge24&#45;label"><a xlink:title="runtime.park_m &#45;&gt; runtime.schedule (1025.12kB)">
<text text-anchor="middle" x="672" y="-786.8" font-family="Times,serif" font-size="14.00"> 1025.12kB</text>
</a>
</g>
</g>
<!-- N22 -->
<g id="node22" class="node">
<title>N22</title>
<g id="a_node22"><a xlink:title="runtime.wakep (2050.25kB)">
<polygon fill="#eddbd5" stroke="#b22f00" points="660,-501 562,-501 562,-465 660,-465 660,-501"/>
<text text-anchor="middle" x="611" y="-490.1" font-family="Times,serif" font-size="8.00">runtime</text>
<text text-anchor="middle" x="611" y="-481.1" font-family="Times,serif" font-size="8.00">wakep</text>
<text text-anchor="middle" x="611" y="-472.1" font-family="Times,serif" font-size="8.00">0 of 2050.25kB (35.28%)</text>
</a>
</g>
</g>
<!-- N20&#45;&gt;N22 -->
<g id="edge8" class="edge">
<title>N20&#45;&gt;N22</title>
<g id="a_edge8"><a xlink:title="runtime.resetspinning &#45;&gt; runtime.wakep (2050.25kB)">
<path fill="none" stroke="#b22f00" stroke-width="2" d="M611,-581.53C611,-562.94 611,-533.24 611,-511.5"/>
<polygon fill="#b22f00" stroke="#b22f00" stroke-width="2" points="614.5,-511.25 611,-501.25 607.5,-511.25 614.5,-511.25"/>
</a>
</g>
<g id="a_edge8&#45;label"><a xlink:title="runtime.resetspinning &#45;&gt; runtime.wakep (2050.25kB)">
<text text-anchor="middle" x="643" y="-548.8" font-family="Times,serif" font-size="14.00"> 2050.25kB</text>
</a>
</g>
</g>
<!-- N21 -->
<g id="node21" class="node">
<title>N21</title>
<g id="a_node21"><a xlink:title="runtime.startm (2050.25kB)">
<polygon fill="#eddbd5" stroke="#b22f00" points="660,-367.5 562,-367.5 562,-331.5 660,-331.5 660,-367.5"/>
<text text-anchor="middle" x="611" y="-356.6" font-family="Times,serif" font-size="8.00">runtime</text>
<text text-anchor="middle" x="611" y="-347.6" font-family="Times,serif" font-size="8.00">startm</text>
<text text-anchor="middle" x="611" y="-338.6" font-family="Times,serif" font-size="8.00">0 of 2050.25kB (35.28%)</text>
</a>
</g>
</g>
<!-- N21&#45;&gt;N16 -->
<g id="edge10" class="edge">
<title>N21&#45;&gt;N16</title>
<g id="a_edge10"><a xlink:title="runtime.startm &#45;&gt; runtime.newm (2050.25kB)">
<path fill="none" stroke="#b22f00" stroke-width="2" d="M611,-331.08C611,-314.56 611,-289.5 611,-270.32"/>
<polygon fill="#b22f00" stroke="#b22f00" stroke-width="2" points="614.5,-270.1 611,-260.1 607.5,-270.1 614.5,-270.1"/>
</a>
</g>
<g id="a_edge10&#45;label"><a xlink:title="runtime.startm &#45;&gt; runtime.newm (2050.25kB)">
<text text-anchor="middle" x="643" y="-281.8" font-family="Times,serif" font-size="14.00"> 2050.25kB</text>
</a>
</g>
</g>
<!-- N22&#45;&gt;N21 -->
<g id="edge11" class="edge">
<title>N22&#45;&gt;N21</title>
<g id="a_edge11"><a xlink:title="runtime.wakep &#45;&gt; runtime.startm (2050.25kB)">
<path fill="none" stroke="#b22f00" stroke-width="2" d="M611,-464.81C611,-442.66 611,-403.9 611,-377.72"/>
<polygon fill="#b22f00" stroke="#b22f00" stroke-width="2" points="614.5,-377.7 611,-367.7 607.5,-377.7 614.5,-377.7"/>
</a>
</g>
<g id="a_edge11&#45;label"><a xlink:title="runtime.wakep &#45;&gt; runtime.startm (2050.25kB)">
<text text-anchor="middle" x="643" y="-409.8" font-family="Times,serif" font-size="14.00"> 2050.25kB</text>
</a>
</g>
</g>
<!-- N23&#45;&gt;N12 -->
<g id="edge13" class="edge">
<title>N23&#45;&gt;N12</title>
<g id="a_edge13"><a xlink:title="runtime/pprof.(*profileBuilder).build &#45;&gt; compress/gzip.(*Writer).Write (1553.21kB)">
<path fill="none" stroke="#b23a00" stroke-width="2" d="M988,-910.9C988,-898.89 988,-883.62 988,-870.24"/>
<polygon fill="#b23a00" stroke="#b23a00" stroke-width="2" points="991.5,-870.02 988,-860.02 984.5,-870.02 991.5,-870.02"/>
</a>
</g>
<g id="a_edge13&#45;label"><a xlink:title="runtime/pprof.(*profileBuilder).build &#45;&gt; compress/gzip.(*Writer).Write (1553.21kB)">
<text text-anchor="middle" x="1020" y="-881.8" font-family="Times,serif" font-size="14.00"> 1553.21kB</text>
</a>
</g>
</g>
<!-- N25 -->
<g id="node25" class="node">
<title>N25</title>
<g id="a_node25"><a xlink:title="testing.(*M).before (1184.27kB)">
<polygon fill="#edded5" stroke="#b24300" points="871,-622 773,-622 773,-578 871,-578 871,-622"/>
<text text-anchor="middle" x="822" y="-611.6" font-family="Times,serif" font-size="8.00">testing</text>
<text text-anchor="middle" x="822" y="-602.6" font-family="Times,serif" font-size="8.00">(*M)</text>
<text text-anchor="middle" x="822" y="-593.6" font-family="Times,serif" font-size="8.00">before</text>
<text text-anchor="middle" x="822" y="-584.6" font-family="Times,serif" font-size="8.00">0 of 1184.27kB (20.38%)</text>
</a>
</g>
</g>
<!-- N24&#45;&gt;N25 -->
<g id="edge17" class="edge">
<title>N24&#45;&gt;N25</title>
<g id="a_edge17"><a xlink:title="testing.(*M).Run &#45;&gt; testing.(*M).before (1184.27kB)">
<path fill="none" stroke="#b24300" stroke-width="2" d="M822,-696.81C822,-678.76 822,-652.56 822,-632.12"/>
<polygon fill="#b24300" stroke="#b24300" stroke-width="2" points="825.5,-632.03 822,-622.03 818.5,-632.03 825.5,-632.03"/>
</a>
</g>
<g id="a_edge17&#45;label"><a xlink:title="testing.(*M).Run &#45;&gt; testing.(*M).before (1184.27kB)">
<text text-anchor="middle" x="854" y="-643.8" font-family="Times,serif" font-size="14.00"> 1184.27kB</text>
</a>
</g>
</g>
<!-- N26 -->
<g id="node26" class="node">
<title>N26</title>
<g id="a_node26"><a xlink:title="testing/internal/testdeps.TestDeps.StartCPUProfile (1184.27kB)">
<polygon fill="#edded5" stroke="#b24300" points="871,-505 773,-505 773,-461 871,-461 871,-505"/>
<text text-anchor="middle" x="822" y="-494.6" font-family="Times,serif" font-size="8.00">testdeps</text>
<text text-anchor="middle" x="822" y="-485.6" font-family="Times,serif" font-size="8.00">TestDeps</text>
<text text-anchor="middle" x="822" y="-476.6" font-family="Times,serif" font-size="8.00">StartCPUProfile</text>
<text text-anchor="middle" x="822" y="-467.6" font-family="Times,serif" font-size="8.00">0 of 1184.27kB (20.38%)</text>
</a>
</g>
</g>
<!-- N25&#45;&gt;N26 -->
<g id="edge18" class="edge">
<title>N25&#45;&gt;N26</title>
<g id="a_edge18"><a xlink:title="testing.(*M).before &#45;&gt; testing/internal/testdeps.TestDeps.StartCPUProfile (1184.27kB)">
<path fill="none" stroke="#b24300" stroke-width="2" d="M822,-577.91C822,-560.43 822,-535.33 822,-515.47"/>
<polygon fill="#b24300" stroke="#b24300" stroke-width="2" points="825.5,-515.35 822,-505.35 818.5,-515.35 825.5,-515.35"/>
</a>
</g>
<g id="a_edge18&#45;label"><a xlink:title="testing.(*M).before &#45;&gt; testing/internal/testdeps.TestDeps.StartCPUProfile (1184.27kB)">
<text text-anchor="middle" x="854" y="-548.8" font-family="Times,serif" font-size="14.00"> 1184.27kB</text>
</a>
</g>
</g>
<!-- N26&#45;&gt;N4 -->
<g id="edge19" class="edge">
<title>N26&#45;&gt;N4</title>
<g id="a_edge19"><a xlink:title="testing/internal/testdeps.TestDeps.StartCPUProfile &#45;&gt; runtime/pprof.StartCPUProfile (1184.27kB)">
<path fill="none" stroke="#b24300" stroke-width="2" d="M822,-460.87C822,-444.03 822,-419.78 822,-398.3"/>
<polygon fill="#b24300" stroke="#b24300" stroke-width="2" points="825.5,-398.03 822,-388.03 818.5,-398.03 825.5,-398.03"/>
</a>
</g>
<g id="a_edge19&#45;label"><a xlink:title="testing/internal/testdeps.TestDeps.StartCPUProfile &#45;&gt; runtime/pprof.StartCPUProfile (1184.27kB)">
<text text-anchor="middle" x="854" y="-409.8" font-family="Times,serif" font-size="14.00"> 1184.27kB</text>
</a>
</g>
</g>
</g>
</g></svg>
